<?xml version="1.0" encoding="UTF-8"?>
<svg version="1.1" xmlns="http://www.w3.org/2000/svg" width="128" height="128">
<path d="M0 0 C1.05026367 -0.0038269 2.10052734 -0.00765381 3.18261719 -0.01159668 C5.40170247 -0.01431696 7.62081974 -0.00694777 9.83984375 0.00976562 C13.23770595 0.03117255 16.63345361 0.00996675 20.03125 -0.015625 C22.18750467 -0.01298175 24.34375802 -0.00785682 26.5 0 C27.51674805 -0.00809692 28.53349609 -0.01619385 29.58105469 -0.02453613 C33.51633713 0.0278161 36.39311334 0.07398016 39.89526367 1.94287109 C42.03482305 6.03074432 41.7608161 9.93281053 41.67578125 14.4765625 C41.67084908 15.92589676 41.67084908 15.92589676 41.66581726 17.4045105 C41.65540497 19.44373322 41.63546956 21.48292645 41.60668945 23.52197266 C41.56256652 26.65153181 41.54524661 29.78032438 41.53320312 32.91015625 C41.51978106 34.89063613 41.50485865 36.87110652 41.48828125 38.8515625 C41.48089432 39.791138 41.47350739 40.7307135 41.46589661 41.69876099 C41.45306137 42.56661224 41.44022614 43.4344635 41.42700195 44.32861328 C41.41715775 45.09376251 41.40731354 45.85891174 41.39717102 46.64724731 C41.25 48.53125 41.25 48.53125 40.25 50.53125 C41.10231201 50.54583252 41.95462402 50.56041504 42.83276367 50.57543945 C46.01071175 50.63668285 49.18802546 50.71087029 52.36547852 50.79370117 C53.73775958 50.82684806 55.11017362 50.85491171 56.48266602 50.87768555 C58.46137766 50.91141766 60.43971376 50.9652649 62.41796875 51.01953125 C64.20110474 51.05880737 64.20110474 51.05880737 66.02026367 51.09887695 C69.5320951 51.56901479 71.46169313 52.36965072 74.25 54.53125 C75.16594946 57.27909838 75.36026559 58.78740865 75.31591797 61.60375977 C75.30128006 62.82501305 75.30128006 62.82501305 75.28634644 64.07093811 C75.27177399 64.9460051 75.25720154 65.82107208 75.2421875 66.72265625 C75.22467785 68.5722602 75.20776894 70.42186992 75.19140625 72.27148438 C75.16037114 75.19050927 75.12475499 78.1092487 75.07861328 81.02807617 C75.03642656 83.84297334 75.01288128 86.65753037 74.9921875 89.47265625 C74.97356659 90.34974747 74.95494568 91.22683868 74.9357605 92.13050842 C74.88886788 94.83931282 74.88886788 94.83931282 75.25 98.53125 C76.735 99.52125 76.735 99.52125 78.25 100.53125 C78.4375 104.15625 78.4375 104.15625 78.25 107.53125 C68.41488912 109.74399324 58.76845654 109.80768927 48.74926758 109.73706055 C46.05735841 109.71871496 43.3657936 109.71655217 40.67382812 109.71679688 C38.93489291 109.71188279 37.19595998 109.70605495 35.45703125 109.69921875 C34.27074883 109.69754951 34.27074883 109.69754951 33.0605011 109.69584656 C26.73087983 109.64281124 20.292021 109.545257 14.25 107.53125 C12.59412065 107.77875578 10.9486939 108.09806858 9.3125 108.453125 C1.19110691 109.90442088 -6.86313197 109.83140829 -15.0859375 109.79199219 C-17.74502359 109.78127007 -20.40343432 109.79194124 -23.0625 109.8046875 C-32.1431658 109.81104295 -40.83926525 109.51895963 -49.75 107.53125 C-49.75 105.22125 -49.75 102.91125 -49.75 100.53125 C-47.77 100.03625 -47.77 100.03625 -45.75 99.53125 C-46.08 98.87125 -46.41 98.21125 -46.75 97.53125 C-46.87355235 94.67288507 -46.938432 91.83987536 -46.953125 88.98046875 C-46.95882507 88.12951126 -46.96452515 87.27855377 -46.97039795 86.40180969 C-46.97985298 84.59869634 -46.98638392 82.79556567 -46.99023438 80.99243164 C-46.99992487 78.24008802 -47.03093675 75.48849592 -47.0625 72.73632812 C-47.06903163 70.98437943 -47.07428147 69.2324254 -47.078125 67.48046875 C-47.0904718 66.65947189 -47.1028186 65.83847504 -47.11553955 64.99259949 C-47.09752973 60.34790808 -46.78243885 57.28893382 -43.75 53.53125 C-40.26321064 51.20672376 -38.68032429 51.23351266 -34.55078125 51.1171875 C-32.73803711 51.05917969 -32.73803711 51.05917969 -30.88867188 51 C-29.62603516 50.9690625 -28.36339844 50.938125 -27.0625 50.90625 C-25.15114258 50.84824219 -25.15114258 50.84824219 -23.20117188 50.7890625 C-20.05092708 50.69467314 -16.90069009 50.6090917 -13.75 50.53125 C-14.08 50.20125 -14.41 49.87125 -14.75 49.53125 C-14.86356149 48.14099594 -14.90951393 46.74511659 -14.92700195 45.3503418 C-14.94625481 44.01842049 -14.94625481 44.01842049 -14.96589661 42.65959167 C-14.97328354 41.69298111 -14.98067047 40.72637054 -14.98828125 39.73046875 C-14.996353 38.74254837 -15.00442474 37.75462799 -15.01274109 36.73677063 C-15.02660039 34.64101934 -15.03731424 32.5452453 -15.04516602 30.44946289 C-15.06237222 27.24256595 -15.10624129 24.03670135 -15.15039062 20.83007812 C-15.16051759 18.7968826 -15.16903368 16.76367829 -15.17578125 14.73046875 C-15.19328934 13.76993088 -15.21079742 12.80939301 -15.22883606 11.81974792 C-15.21648651 8.03158198 -15.15836463 5.31626091 -13.39526367 1.92700195 C-9.08617106 -0.34665586 -4.79730192 -0.03820355 0 0 Z M7.25 52.53125 C8.24 54.01625 8.24 54.01625 9.25 55.53125 C9.5284729 57.56242371 9.5284729 57.56242371 9.56884766 59.91088867 C9.58871735 60.79157516 9.60858704 61.67226166 9.62905884 62.57963562 C9.64061005 63.52659805 9.65216125 64.47356049 9.6640625 65.44921875 C9.68342865 66.42159988 9.7027948 67.39398102 9.7227478 68.39582825 C9.7825555 71.50337944 9.8289339 74.61096765 9.875 77.71875 C9.91317867 79.824886 9.95223033 81.93100637 9.9921875 84.03710938 C10.08825811 89.20169605 10.17228491 94.36635582 10.25 99.53125 C13.53696233 100.33078138 14.96023192 100.62783936 18.25 99.53125 C18.26981934 98.24959961 18.28963867 96.96794922 18.31005859 95.64746094 C18.38614503 90.89123933 18.47485798 86.13532243 18.56738281 81.37939453 C18.60565995 79.32118751 18.64051504 77.26291388 18.671875 75.20458984 C18.71755278 72.24552612 18.77554302 69.28692043 18.8359375 66.328125 C18.85326431 64.94823395 18.85326431 64.94823395 18.87094116 63.54046631 C18.89081085 62.6798761 18.91068054 61.81928589 18.93115234 60.93261719 C18.94447601 60.17760925 18.95779968 59.42260132 18.9715271 58.64471436 C19.25 56.53125 19.25 56.53125 21.25 52.53125 C16.63 52.53125 12.01 52.53125 7.25 52.53125 Z " fill="#D9B16B" transform="translate(49.75,12.46875)"/>
<path d="M0 0 C1.27230469 0.01804688 2.54460938 0.03609375 3.85546875 0.0546875 C5.31919922 0.08949219 5.31919922 0.08949219 6.8125 0.125 C6.8125 0.455 6.8125 0.785 6.8125 1.125 C5.53052734 1.21587891 5.53052734 1.21587891 4.22265625 1.30859375 C2.56556641 1.43427734 2.56556641 1.43427734 0.875 1.5625 C-0.22714844 1.64371094 -1.32929688 1.72492188 -2.46484375 1.80859375 C-5.09859903 1.82918084 -5.09859903 1.82918084 -6.1875 3.125 C-5.63848526 3.125 -5.08947052 3.125 -4.52381897 3.125 C9.92162069 3.125 24.36706034 3.125 38.8125 3.125 C38.8125 2.465 38.8125 1.805 38.8125 1.125 C42.6875 3 42.6875 3 43.8125 4.125 C43.9052833 5.50660115 43.92997043 6.89288038 43.92602539 8.27758789 C43.92594986 9.15842545 43.92587433 10.039263 43.92579651 10.9467926 C43.92063522 11.90407761 43.91547394 12.86136261 43.91015625 13.84765625 C43.9087413 14.82286728 43.90732635 15.79807831 43.90586853 16.80284119 C43.90025133 19.93109143 43.88769593 23.05927123 43.875 26.1875 C43.86998722 28.30273334 43.86542393 30.41796781 43.86132812 32.53320312 C43.85027631 37.73049296 43.83352146 42.92774145 43.8125 48.125 C44.73482422 48.07279297 44.73482422 48.07279297 45.67578125 48.01953125 C46.48402344 47.99246094 47.29226562 47.96539062 48.125 47.9375 C49.32576172 47.88529297 49.32576172 47.88529297 50.55078125 47.83203125 C53.35616125 48.19542244 53.87294893 49.16889248 55.8125 51.125 C58.01847959 51.57819223 58.01847959 51.57819223 60.49584961 51.51318359 C61.91763771 51.52736832 61.91763771 51.52736832 63.3681488 51.5418396 C64.39005814 51.53576691 65.41196747 51.52969421 66.46484375 51.5234375 C67.51652237 51.52630768 68.56820099 51.52917786 69.65174866 51.53213501 C71.87680601 51.5341773 74.10188125 51.52863596 76.3269043 51.51611328 C79.73331907 51.50007852 83.13854438 51.51594874 86.54492188 51.53515625 C88.70573179 51.53317353 90.86654096 51.52932927 93.02734375 51.5234375 C94.04722885 51.52951019 95.06711395 51.53558289 96.11790466 51.5418396 C97.54442101 51.52765488 97.54442101 51.52765488 98.99975586 51.51318359 C99.83453964 51.51079681 100.66932343 51.50841003 101.52940369 51.50595093 C104.30543656 51.04275001 105.63473482 49.84868105 107.8125 48.125 C110.0625 48.4375 110.0625 48.4375 111.8125 49.125 C111.8125 51.435 111.8125 53.745 111.8125 56.125 C101.97738912 58.33774324 92.33095654 58.40143927 82.31176758 58.33081055 C79.61985841 58.31246496 76.9282936 58.31030217 74.23632812 58.31054688 C72.49739291 58.30563279 70.75845998 58.29980495 69.01953125 58.29296875 C67.83324883 58.29129951 67.83324883 58.29129951 66.6230011 58.28959656 C60.29337983 58.23656124 53.854521 58.139007 47.8125 56.125 C46.15662065 56.37250578 44.5111939 56.69181858 42.875 57.046875 C34.75360691 58.49817088 26.69936803 58.42515829 18.4765625 58.38574219 C15.81747641 58.37502007 13.15906568 58.38569124 10.5 58.3984375 C1.4193342 58.40479295 -7.27676525 58.11270963 -16.1875 56.125 C-16.1875 53.815 -16.1875 51.505 -16.1875 49.125 C-14.2075 48.63 -14.2075 48.63 -12.1875 48.125 C-12.5175 47.465 -12.8475 46.805 -13.1875 46.125 C-13.31105235 43.26663507 -13.375932 40.43362536 -13.390625 37.57421875 C-13.39632507 36.72326126 -13.40202515 35.87230377 -13.40789795 34.99555969 C-13.41735298 33.19244634 -13.42388392 31.38931567 -13.42773438 29.58618164 C-13.43742487 26.83383802 -13.46843675 24.08224592 -13.5 21.33007812 C-13.50653163 19.57812943 -13.51178147 17.8261754 -13.515625 16.07421875 C-13.5279718 15.25322189 -13.5403186 14.43222504 -13.55303955 13.58634949 C-13.53502973 8.94165808 -13.21993885 5.88268382 -10.1875 2.125 C-6.4507157 -0.36618953 -4.44298181 -0.0815226 0 0 Z " fill="#D9B069" transform="translate(16.1875,63.875)"/>
<path d="M0 0 C2.98704569 0.49784095 4.39324263 1.26216175 7 3 C9.22001609 3.29586621 9.22001609 3.29586621 11.69921875 3.24291992 C12.65030518 3.24599655 13.6013916 3.24907318 14.58129883 3.25224304 C15.60634521 3.24505753 16.6313916 3.23787201 17.6875 3.23046875 C18.74155029 3.23001053 19.79560059 3.22955231 20.8815918 3.2290802 C23.11085129 3.22605827 25.34010868 3.21817373 27.56933594 3.20581055 C30.98640402 3.18757257 34.40320086 3.18530076 37.8203125 3.18554688 C39.98437735 3.18063091 42.14844036 3.17480225 44.3125 3.16796875 C45.33754639 3.16685593 46.36259277 3.1657431 47.41870117 3.16459656 C48.3697876 3.15821671 49.32087402 3.15183685 50.30078125 3.14526367 C51.55628784 3.13954597 51.55628784 3.13954597 52.8371582 3.13371277 C55.18341374 3.08168806 55.18341374 3.08168806 58 2 C58 1.34 58 0.68 58 0 C59.60332791 -0.08121924 61.20784026 -0.13929134 62.8125 -0.1875 C64.15248047 -0.23970703 64.15248047 -0.23970703 65.51953125 -0.29296875 C68 0 68 0 69.36231995 1.49404907 C71.5356029 3.49252092 72.76243486 3.37982427 75.68334961 3.38818359 C77.10513771 3.40236832 77.10513771 3.40236832 78.5556488 3.4168396 C79.57755814 3.41076691 80.59946747 3.40469421 81.65234375 3.3984375 C82.70402237 3.40130768 83.75570099 3.40417786 84.83924866 3.40713501 C87.06430601 3.4091773 89.28938125 3.40363596 91.5144043 3.39111328 C94.92081907 3.37507852 98.32604438 3.39094874 101.73242188 3.41015625 C103.89323179 3.40817353 106.05404096 3.40432927 108.21484375 3.3984375 C109.23472885 3.40451019 110.25461395 3.41058289 111.30540466 3.4168396 C112.73192101 3.40265488 112.73192101 3.40265488 114.18725586 3.38818359 C115.02203964 3.38579681 115.85682343 3.38341003 116.71690369 3.38095093 C119.49293656 2.91775001 120.82223482 1.72368105 123 0 C125.25 0.3125 125.25 0.3125 127 1 C127 3.31 127 5.62 127 8 C117.16488912 10.21274324 107.51845654 10.27643927 97.49926758 10.20581055 C94.80735841 10.18746496 92.1157936 10.18530217 89.42382812 10.18554688 C87.68489291 10.18063279 85.94595998 10.17480495 84.20703125 10.16796875 C83.02074883 10.16629951 83.02074883 10.16629951 81.8105011 10.16459656 C75.48087983 10.11156124 69.042021 10.014007 63 8 C61.34412065 8.24750578 59.6986939 8.56681858 58.0625 8.921875 C49.94110691 10.37317088 41.88686803 10.30015829 33.6640625 10.26074219 C31.00497641 10.25002007 28.34656568 10.26069124 25.6875 10.2734375 C16.6068342 10.27979295 7.91073475 9.98770963 -1 8 C-1.04241723 5.66705225 -1.04092937 3.33297433 -1 1 C-0.67 0.67 -0.34 0.34 0 0 Z " fill="#9E9E9E" transform="translate(1,112)"/>
<path d="M0 0 C4.95 0 9.9 0 15 0 C15 8.25 15 16.5 15 25 C12.525 24.01 12.525 24.01 10 23 C9.67 23.66 9.34 24.32 9 25 C8.071875 24.62875 7.14375 24.2575 6.1875 23.875 C5.135625 23.58625 4.08375 23.2975 3 23 C2.01 23.66 1.02 24.32 0 25 C0 16.75 0 8.5 0 0 Z " fill="#A67731" transform="translate(54,15)"/>
<path d="M0 0 C4.95 0 9.9 0 15 0 C15 8.25 15 16.5 15 25 C14.01 24.01 13.02 23.02 12 22 C9.87635519 21.77390663 9.87635519 21.77390663 8.375 23.5 C7.92125 23.995 7.4675 24.49 7 25 C6.34 24.01 5.68 23.02 5 22 C3.35 22.66 1.7 23.32 0 24 C0 16.08 0 8.16 0 0 Z " fill="#A57530" transform="translate(23,67)"/>
<path d="M0 0 C4.62 0 9.24 0 14 0 C14 7.92 14 15.84 14 24 C12.35 23.01 10.7 22.02 9 21 C8.67 22.32 8.34 23.64 8 25 C7.34 25 6.68 25 6 25 C5.67 23.68 5.34 22.36 5 21 C3.35 21.99 1.7 22.98 0 24 C0 16.08 0 8.16 0 0 Z " fill="#A4742E" transform="translate(88,67)"/>
<path d="M0 0 C3.26485262 -0.15546917 5.71240055 -0.10225758 8.8125 1 C13.03020516 2.32320162 16.58887875 2.13367034 21 2 C21 4.97 21 7.94 21 11 C14.07 11 7.14 11 0 11 C0 7.37 0 3.74 0 0 Z " fill="#A09177" transform="translate(11,101)"/>
<path d="M0 0 C7 0 14 0 21 0 C21.33 2.97 21.66 5.94 22 9 C14.41 9 6.82 9 -1 9 C-0.67 6.03 -0.34 3.06 0 0 Z " fill="#8C8A87" transform="translate(42,51)"/>
<path d="M0 0 C1.58962555 0.00848969 1.58962555 0.00848969 3.21136475 0.01715088 C6.59449528 0.0395326 9.97656484 0.08973402 13.359375 0.140625 C15.65363053 0.1606876 17.94790267 0.17893879 20.2421875 0.1953125 C25.86494503 0.2394032 31.48708421 0.30633364 37.109375 0.390625 C37.109375 1.710625 37.109375 3.030625 37.109375 4.390625 C36.45960693 4.3198877 35.80983887 4.24915039 35.14038086 4.17626953 C27.96560722 3.45236738 20.87991375 3.23897791 13.671875 3.265625 C12.62966797 3.26175781 11.58746094 3.25789062 10.51367188 3.25390625 C3.33379114 3.26280877 -3.74599644 3.68918433 -10.890625 4.390625 C-11.550625 6.370625 -12.210625 8.350625 -12.890625 10.390625 C-13.550625 10.390625 -14.210625 10.390625 -14.890625 10.390625 C-15.18893012 7.10926871 -15.30262521 5.06302622 -13.55566406 2.21191406 C-9.30474138 -0.69316868 -5.02507594 -0.10079062 0 0 Z " fill="#E1C599" transform="translate(49.890625,12.609375)"/>
<path d="M0 0 C0.98484375 -0.00128906 1.9696875 -0.00257812 2.984375 -0.00390625 C4.02078125 -0.00003906 5.0571875 0.00382812 6.125 0.0078125 C7.67960937 0.00201172 7.67960937 0.00201172 9.265625 -0.00390625 C10.25046875 -0.00261719 11.2353125 -0.00132813 12.25 0 C13.16007812 0.00112793 14.07015625 0.00225586 15.0078125 0.00341797 C17.125 0.1328125 17.125 0.1328125 18.125 1.1328125 C18.19679964 2.65209288 18.20892007 4.17448732 18.1875 5.6953125 C18.17847656 6.52160156 18.16945313 7.34789063 18.16015625 8.19921875 C18.14855469 8.83730469 18.13695313 9.47539063 18.125 10.1328125 C17.465 10.1328125 16.805 10.1328125 16.125 10.1328125 C16.125 7.4928125 16.125 4.8528125 16.125 2.1328125 C14.805 2.1328125 13.485 2.1328125 12.125 2.1328125 C12.125 4.7728125 12.125 7.4128125 12.125 10.1328125 C11.135 9.8028125 10.145 9.4728125 9.125 9.1328125 C9.785 9.1328125 10.445 9.1328125 11.125 9.1328125 C11.125 6.8228125 11.125 4.5128125 11.125 2.1328125 C10.135 2.1328125 9.145 2.1328125 8.125 2.1328125 C8.125 4.7728125 8.125 7.4128125 8.125 10.1328125 C7.465 10.1328125 6.805 10.1328125 6.125 10.1328125 C6.125 7.4928125 6.125 4.8528125 6.125 2.1328125 C2.825 2.1328125 -0.475 2.1328125 -3.875 2.1328125 C-3.875 4.7728125 -3.875 7.4128125 -3.875 10.1328125 C-4.535 9.8028125 -5.195 9.4728125 -5.875 9.1328125 C-5.97265625 2.98046875 -5.97265625 2.98046875 -5.875 1.1328125 C-4.22105883 -0.52112867 -2.27184587 0.00281567 0 0 Z " fill="#D3D1CB" transform="translate(79.875,100.8671875)"/>
<path d="M0 0 C1.24160133 -0.01418472 1.24160133 -0.01418472 2.50828552 -0.02865601 C3.39895218 -0.02258331 4.28961884 -0.01651062 5.20727539 -0.01025391 C6.12577774 -0.01312408 7.04428009 -0.01599426 7.99061584 -0.01895142 C9.93320329 -0.02099291 11.87581125 -0.01545708 13.81835938 -0.00292969 C16.79026376 0.01310446 19.76080436 -0.00276599 22.73266602 -0.02197266 C24.62003881 -0.01998988 26.50741075 -0.01614549 28.39477539 -0.01025391 C29.28341782 -0.0163266 30.17206024 -0.02239929 31.08763123 -0.02865601 C37.27865502 0.04180526 37.27865502 0.04180526 40.45947266 1.91308594 C40.92409912 2.39986816 41.38872559 2.88665039 41.86743164 3.38818359 C41.53743164 4.04818359 41.20743164 4.70818359 40.86743164 5.38818359 C40.20743164 4.72818359 39.54743164 4.06818359 38.86743164 3.38818359 C36.8066302 3.09652277 36.8066302 3.09652277 34.41772461 3.16113281 C33.03651932 3.16135941 33.03651932 3.16135941 31.62741089 3.16159058 C30.13360397 3.17707443 30.13360397 3.17707443 28.60961914 3.19287109 C27.08233688 3.19711594 27.08233688 3.19711594 25.52420044 3.20144653 C22.26349264 3.21266589 19.0030568 3.23777363 15.74243164 3.26318359 C13.53540435 3.27321113 11.32837277 3.28233737 9.12133789 3.29052734 C3.70327592 3.31261092 -1.71462679 3.34610564 -7.13256836 3.38818359 C-4.84365047 0.66787682 -3.54156861 0.01162078 0 0 Z " fill="#E3C8A0" transform="translate(15.132568359375,64.61181640625)"/>
<path d="M0 0 C3.3 0 6.6 0 10 0 C10 2.64 10 5.28 10 8 C6.78548731 9.60725635 3.56387464 9.05748185 0 9 C0 6.03 0 3.06 0 0 Z " fill="#948E83" transform="translate(76,103)"/>
<path d="M0 0 C2.64590014 -0.02684679 5.29153096 -0.04676357 7.9375 -0.0625 C8.69224609 -0.07087891 9.44699219 -0.07925781 10.22460938 -0.08789062 C12.14994313 -0.09652441 14.07535581 -0.05224333 16 0 C17 1 17 1 17.09765625 2.84765625 C17.06510417 4.8984375 17.03255208 6.94921875 17 9 C16.01 9.495 16.01 9.495 15 10 C15 7.36 15 4.72 15 2 C12.03 2 9.06 2 6 2 C6 4.64 6 7.28 6 10 C5.67 10 5.34 10 5 10 C5 7.36 5 4.72 5 2 C3.35 1.67 1.7 1.34 0 1 C0 0.67 0 0.34 0 0 Z " fill="#DFDBD2" transform="translate(17,101)"/>
<path d="M0 0 C1.98 0 3.96 0 6 0 C6.33 0.66 6.66 1.32 7 2 C6.34 2 5.68 2 5 2 C5 4.64 5 7.28 5 10 C3.35 10 1.7 10 0 10 C0 6.7 0 3.4 0 0 Z " fill="#A09E9A" transform="translate(11,101)"/>
<path d="M0 0 C1.2065625 0.0309375 1.2065625 0.0309375 2.4375 0.0625 C2.4375 2.7025 2.4375 5.3425 2.4375 8.0625 C0.4575 8.0625 -1.5225 8.0625 -3.5625 8.0625 C-3.60491723 5.72955225 -3.60342937 3.39547433 -3.5625 1.0625 C-2.5625 0.0625 -2.5625 0.0625 0 0 Z " fill="#81807D" transform="translate(57.5625,50.9375)"/>
<path d="M0 0 C1.98 0 3.96 0 6 0 C6 2.31 6 4.62 6 7 C4.02 7 2.04 7 0 7 C0 4.69 0 2.38 0 0 Z " fill="#777573" transform="translate(23,103)"/>
<path d="M0 0 C0.66 0 1.32 0 2 0 C2.33 2.97 2.66 5.94 3 9 C-1.29 9 -5.58 9 -10 9 C-7 7 -7 7 -3.8125 7.375 C-2.884375 7.58125 -1.95625 7.7875 -1 8 C-1.020625 6.865625 -1.04125 5.73125 -1.0625 4.5625 C-1 1 -1 1 0 0 Z " fill="#A09F9D" transform="translate(61,51)"/>
<path d="M0 0 C1.65 0 3.3 0 5 0 C5 2.31 5 4.62 5 7 C3.35 7 1.7 7 0 7 C0 4.69 0 2.38 0 0 Z " fill="#62605C" transform="translate(78,103)"/>
<path d="M0 0 C5.94 0 11.88 0 18 0 C18 1.32 18 2.64 18 4 C14.37 3.67 10.74 3.34 7 3 C7 2.67 7 2.34 7 2 C4.69 1.67 2.38 1.34 0 1 C0 0.67 0 0.34 0 0 Z " fill="#E0C18C" transform="translate(69,13)"/>
<path d="M0 0 C1.32 0 2.64 0 4 0 C4 2.64 4 5.28 4 8 C2.68 8.33 1.36 8.66 0 9 C0 6.03 0 3.06 0 0 Z " fill="#77746F" transform="translate(92,103)"/>
<path d="M0 0 C0.99 0 1.98 0 3 0 C3 2.64 3 5.28 3 8 C0.03 8 -2.94 8 -6 8 C-6 7.67 -6 7.34 -6 7 C-4.02 7 -2.04 7 0 7 C0 4.69 0 2.38 0 0 Z " fill="#8D8B89" transform="translate(29,103)"/>
<path d="M0 0 C1.28132813 0.00902344 2.56265625 0.01804688 3.8828125 0.02734375 C4.87023438 0.03894531 5.85765625 0.05054688 6.875 0.0625 C6.875 0.3925 6.875 0.7225 6.875 1.0625 C6.03195313 1.12308594 5.18890625 1.18367188 4.3203125 1.24609375 C3.22460938 1.32988281 2.12890625 1.41367188 1 1.5 C-0.09054688 1.58121094 -1.18109375 1.66242188 -2.3046875 1.74609375 C-5.07228971 1.89251703 -5.07228971 1.89251703 -7.125 3.0625 C-7.84659424 4.70613134 -8.51851421 6.37300386 -9.125 8.0625 C-10.16364166 4.94657501 -10.21536928 4.0362344 -9.125 1.0625 C-6.12186252 -0.43906874 -3.33432478 -0.03031204 0 0 Z " fill="#DEBD82" transform="translate(16.125,63.9375)"/>
<path d="M0 0 C0.66 0 1.32 0 2 0 C1.125 6.75 1.125 6.75 0 9 C-0.66 9 -1.32 9 -2 9 C-2.25 3.375 -2.25 3.375 0 0 Z " fill="#DDB879" transform="translate(37,14)"/>
<path d="M0 0 C0.99 0 1.98 0 3 0 C3 2.31 3 4.62 3 7 C2.01 7 1.02 7 0 7 C0 4.69 0 2.38 0 0 Z " fill="#6A6865" transform="translate(88,103)"/>
<path d="M0 0 C0.99 0 1.98 0 3 0 C3 2.31 3 4.62 3 7 C2.01 7 1.02 7 0 7 C0 4.69 0 2.38 0 0 Z " fill="#5C5A57" transform="translate(19,103)"/>
<path d="M0 0 C0.99 0 1.98 0 3 0 C3 2.31 3 4.62 3 7 C2.01 7 1.02 7 0 7 C0 4.69 0 2.38 0 0 Z " fill="#64615E" transform="translate(50,52)"/>
</svg>
